<?xml version="1.0" encoding="utf-8" standalone="no"?>
<!DOCTYPE svg PUBLIC "-//W3C//DTD SVG 1.1//EN"
  "http://www.w3.org/Graphics/SVG/1.1/DTD/svg11.dtd">
<svg xmlns:xlink="http://www.w3.org/1999/xlink" width="864pt" height="432pt" viewBox="0 0 864 432" xmlns="http://www.w3.org/2000/svg" version="1.1">
 <metadata>
  <rdf:RDF xmlns:dc="http://purl.org/dc/elements/1.1/" xmlns:cc="http://creativecommons.org/ns#" xmlns:rdf="http://www.w3.org/1999/02/22-rdf-syntax-ns#">
   <cc:Work>
    <dc:type rdf:resource="http://purl.org/dc/dcmitype/StillImage"/>
    <dc:date>2025-05-08T10:43:55.802578</dc:date>
    <dc:format>image/svg+xml</dc:format>
    <dc:creator>
     <cc:Agent>
      <dc:title>Matplotlib v3.10.1, https://matplotlib.org/</dc:title>
     </cc:Agent>
    </dc:creator>
   </cc:Work>
  </rdf:RDF>
 </metadata>
 <defs>
  <style type="text/css">*{stroke-linejoin: round; stroke-linecap: butt}</style>
 </defs>
 <g id="figure_1">
  <g id="patch_1">
   <path d="M 0 432 
L 864 432 
L 864 0 
L 0 0 
z
" style="fill: #ffffff"/>
  </g>
  <g id="axes_1">
   <g id="patch_2">
    <path d="M 111.239896 364.4 
L 829 364.4 
L 829 51.8 
L 111.239896 51.8 
z
" style="fill: #ffffff"/>
   </g>
   <g id="patch_3">
    <path d="M 111.239896 350.190909 
L 672.646448 350.190909 
L 672.646448 341.579339 
L 111.239896 341.579339 
z
" clip-path="url(#p2ab4752b11)" style="fill: #1f77b4; opacity: 0.8"/>
   </g>
   <g id="patch_4">
    <path d="M 111.239896 315.744628 
L 641.10267 315.744628 
L 641.10267 307.133058 
L 111.239896 307.133058 
z
" clip-path="url(#p2ab4752b11)" style="fill: #ff7f0e; opacity: 0.8"/>
   </g>
   <g id="patch_5">
    <path d="M 111.239896 281.298347 
L 646.503528 281.298347 
L 646.503528 272.686777 
L 111.239896 272.686777 
z
" clip-path="url(#p2ab4752b11)" style="fill: #2ca02c; opacity: 0.8"/>
   </g>
   <g id="patch_6">
    <path d="M 111.239896 246.852066 
L 649.435156 246.852066 
L 649.435156 238.240496 
L 111.239896 238.240496 
z
" clip-path="url(#p2ab4752b11)" style="fill: #d62728; opacity: 0.8"/>
   </g>
   <g id="patch_7">
    <path d="M 111.239896 177.959504 
L 160.744198 177.959504 
L 160.744198 169.347934 
L 111.239896 169.347934 
z
" clip-path="url(#p2ab4752b11)" style="fill: #1f77b4; opacity: 0.8"/>
   </g>
   <g id="patch_8">
    <path d="M 111.239896 143.513223 
L 169.868622 143.513223 
L 169.868622 134.901653 
L 111.239896 134.901653 
z
" clip-path="url(#p2ab4752b11)" style="fill: #ff7f0e; opacity: 0.8"/>
   </g>
   <g id="patch_9">
    <path d="M 111.239896 109.066942 
L 175.066051 109.066942 
L 175.066051 100.455372 
L 111.239896 100.455372 
z
" clip-path="url(#p2ab4752b11)" style="fill: #2ca02c; opacity: 0.8"/>
   </g>
   <g id="patch_10">
    <path d="M 111.239896 74.620661 
L 175.399007 74.620661 
L 175.399007 66.009091 
L 111.239896 66.009091 
z
" clip-path="url(#p2ab4752b11)" style="fill: #d62728; opacity: 0.8"/>
   </g>
   <g id="matplotlib.axis_1">
    <g id="xtick_1">
     <g id="line2d_1">
      <path d="M 111.239896 364.4 
L 111.239896 51.8 
" clip-path="url(#p2ab4752b11)" style="fill: none; stroke-dasharray: 2.96,1.28; stroke-dashoffset: 0; stroke: #b0b0b0; stroke-opacity: 0.7; stroke-width: 0.8"/>
     </g>
     <g id="line2d_2">
      <defs>
       <path id="m8a918441b9" d="M 0 0 
L 0 3.5 
" style="stroke: #000000; stroke-width: 0.8"/>
      </defs>
      <g>
       <use xlink:href="#m8a918441b9" x="111.239896" y="364.4" style="stroke: #000000; stroke-width: 0.8"/>
      </g>
     </g>
     <g id="text_1">
      <!-- 0 -->
      <g transform="translate(107.422396 380.518125) scale(0.12 -0.12)">
       <defs>
        <path id="DejaVuSans-30" d="M 2034 4250 
Q 1547 4250 1301 3770 
Q 1056 3291 1056 2328 
Q 1056 1369 1301 889 
Q 1547 409 2034 409 
Q 2525 409 2770 889 
Q 3016 1369 3016 2328 
Q 3016 3291 2770 3770 
Q 2525 4250 2034 4250 
z
M 2034 4750 
Q 2819 4750 3233 4129 
Q 3647 3509 3647 2328 
Q 3647 1150 3233 529 
Q 2819 -91 2034 -91 
Q 1250 -91 836 529 
Q 422 1150 422 2328 
Q 422 3509 836 4129 
Q 1250 4750 2034 4750 
z
" transform="scale(0.015625)"/>
       </defs>
       <use xlink:href="#DejaVuSans-30"/>
      </g>
     </g>
    </g>
    <g id="xtick_2">
     <g id="line2d_3">
      <path d="M 204.994879 364.4 
L 204.994879 51.8 
" clip-path="url(#p2ab4752b11)" style="fill: none; stroke-dasharray: 2.96,1.28; stroke-dashoffset: 0; stroke: #b0b0b0; stroke-opacity: 0.7; stroke-width: 0.8"/>
     </g>
     <g id="line2d_4">
      <g>
       <use xlink:href="#m8a918441b9" x="204.994879" y="364.4" style="stroke: #000000; stroke-width: 0.8"/>
      </g>
     </g>
     <g id="text_2">
      <!-- 50 -->
      <g transform="translate(197.359879 380.518125) scale(0.12 -0.12)">
       <defs>
        <path id="DejaVuSans-35" d="M 691 4666 
L 3169 4666 
L 3169 4134 
L 1269 4134 
L 1269 2991 
Q 1406 3038 1543 3061 
Q 1681 3084 1819 3084 
Q 2600 3084 3056 2656 
Q 3513 2228 3513 1497 
Q 3513 744 3044 326 
Q 2575 -91 1722 -91 
Q 1428 -91 1123 -41 
Q 819 9 494 109 
L 494 744 
Q 775 591 1075 516 
Q 1375 441 1709 441 
Q 2250 441 2565 725 
Q 2881 1009 2881 1497 
Q 2881 1984 2565 2268 
Q 2250 2553 1709 2553 
Q 1456 2553 1204 2497 
Q 953 2441 691 2322 
L 691 4666 
z
" transform="scale(0.015625)"/>
       </defs>
       <use xlink:href="#DejaVuSans-35"/>
       <use xlink:href="#DejaVuSans-30" transform="translate(63.623047 0)"/>
      </g>
     </g>
    </g>
    <g id="xtick_3">
     <g id="line2d_5">
      <path d="M 298.749863 364.4 
L 298.749863 51.8 
" clip-path="url(#p2ab4752b11)" style="fill: none; stroke-dasharray: 2.96,1.28; stroke-dashoffset: 0; stroke: #b0b0b0; stroke-opacity: 0.7; stroke-width: 0.8"/>
     </g>
     <g id="line2d_6">
      <g>
       <use xlink:href="#m8a918441b9" x="298.749863" y="364.4" style="stroke: #000000; stroke-width: 0.8"/>
      </g>
     </g>
     <g id="text_3">
      <!-- 100 -->
      <g transform="translate(287.297363 380.518125) scale(0.12 -0.12)">
       <defs>
        <path id="DejaVuSans-31" d="M 794 531 
L 1825 531 
L 1825 4091 
L 703 3866 
L 703 4441 
L 1819 4666 
L 2450 4666 
L 2450 531 
L 3481 531 
L 3481 0 
L 794 0 
L 794 531 
z
" transform="scale(0.015625)"/>
       </defs>
       <use xlink:href="#DejaVuSans-31"/>
       <use xlink:href="#DejaVuSans-30" transform="translate(63.623047 0)"/>
       <use xlink:href="#DejaVuSans-30" transform="translate(127.246094 0)"/>
      </g>
     </g>
    </g>
    <g id="xtick_4">
     <g id="line2d_7">
      <path d="M 392.504846 364.4 
L 392.504846 51.8 
" clip-path="url(#p2ab4752b11)" style="fill: none; stroke-dasharray: 2.96,1.28; stroke-dashoffset: 0; stroke: #b0b0b0; stroke-opacity: 0.7; stroke-width: 0.8"/>
     </g>
     <g id="line2d_8">
      <g>
       <use xlink:href="#m8a918441b9" x="392.504846" y="364.4" style="stroke: #000000; stroke-width: 0.8"/>
      </g>
     </g>
     <g id="text_4">
      <!-- 150 -->
      <g transform="translate(381.052346 380.518125) scale(0.12 -0.12)">
       <use xlink:href="#DejaVuSans-31"/>
       <use xlink:href="#DejaVuSans-35" transform="translate(63.623047 0)"/>
       <use xlink:href="#DejaVuSans-30" transform="translate(127.246094 0)"/>
      </g>
     </g>
    </g>
    <g id="xtick_5">
     <g id="line2d_9">
      <path d="M 486.259829 364.4 
L 486.259829 51.8 
" clip-path="url(#p2ab4752b11)" style="fill: none; stroke-dasharray: 2.96,1.28; stroke-dashoffset: 0; stroke: #b0b0b0; stroke-opacity: 0.7; stroke-width: 0.8"/>
     </g>
     <g id="line2d_10">
      <g>
       <use xlink:href="#m8a918441b9" x="486.259829" y="364.4" style="stroke: #000000; stroke-width: 0.8"/>
      </g>
     </g>
     <g id="text_5">
      <!-- 200 -->
      <g transform="translate(474.807329 380.518125) scale(0.12 -0.12)">
       <defs>
        <path id="DejaVuSans-32" d="M 1228 531 
L 3431 531 
L 3431 0 
L 469 0 
L 469 531 
Q 828 903 1448 1529 
Q 2069 2156 2228 2338 
Q 2531 2678 2651 2914 
Q 2772 3150 2772 3378 
Q 2772 3750 2511 3984 
Q 2250 4219 1831 4219 
Q 1534 4219 1204 4116 
Q 875 4013 500 3803 
L 500 4441 
Q 881 4594 1212 4672 
Q 1544 4750 1819 4750 
Q 2544 4750 2975 4387 
Q 3406 4025 3406 3419 
Q 3406 3131 3298 2873 
Q 3191 2616 2906 2266 
Q 2828 2175 2409 1742 
Q 1991 1309 1228 531 
z
" transform="scale(0.015625)"/>
       </defs>
       <use xlink:href="#DejaVuSans-32"/>
       <use xlink:href="#DejaVuSans-30" transform="translate(63.623047 0)"/>
       <use xlink:href="#DejaVuSans-30" transform="translate(127.246094 0)"/>
      </g>
     </g>
    </g>
    <g id="xtick_6">
     <g id="line2d_11">
      <path d="M 580.014813 364.4 
L 580.014813 51.8 
" clip-path="url(#p2ab4752b11)" style="fill: none; stroke-dasharray: 2.96,1.28; stroke-dashoffset: 0; stroke: #b0b0b0; stroke-opacity: 0.7; stroke-width: 0.8"/>
     </g>
     <g id="line2d_12">
      <g>
       <use xlink:href="#m8a918441b9" x="580.014813" y="364.4" style="stroke: #000000; stroke-width: 0.8"/>
      </g>
     </g>
     <g id="text_6">
      <!-- 250 -->
      <g transform="translate(568.562313 380.518125) scale(0.12 -0.12)">
       <use xlink:href="#DejaVuSans-32"/>
       <use xlink:href="#DejaVuSans-35" transform="translate(63.623047 0)"/>
       <use xlink:href="#DejaVuSans-30" transform="translate(127.246094 0)"/>
      </g>
     </g>
    </g>
    <g id="xtick_7">
     <g id="line2d_13">
      <path d="M 673.769796 364.4 
L 673.769796 51.8 
" clip-path="url(#p2ab4752b11)" style="fill: none; stroke-dasharray: 2.96,1.28; stroke-dashoffset: 0; stroke: #b0b0b0; stroke-opacity: 0.7; stroke-width: 0.8"/>
     </g>
     <g id="line2d_14">
      <g>
       <use xlink:href="#m8a918441b9" x="673.769796" y="364.4" style="stroke: #000000; stroke-width: 0.8"/>
      </g>
     </g>
     <g id="text_7">
      <!-- 300 -->
      <g transform="translate(662.317296 380.518125) scale(0.12 -0.12)">
       <defs>
        <path id="DejaVuSans-33" d="M 2597 2516 
Q 3050 2419 3304 2112 
Q 3559 1806 3559 1356 
Q 3559 666 3084 287 
Q 2609 -91 1734 -91 
Q 1441 -91 1130 -33 
Q 819 25 488 141 
L 488 750 
Q 750 597 1062 519 
Q 1375 441 1716 441 
Q 2309 441 2620 675 
Q 2931 909 2931 1356 
Q 2931 1769 2642 2001 
Q 2353 2234 1838 2234 
L 1294 2234 
L 1294 2753 
L 1863 2753 
Q 2328 2753 2575 2939 
Q 2822 3125 2822 3475 
Q 2822 3834 2567 4026 
Q 2313 4219 1838 4219 
Q 1578 4219 1281 4162 
Q 984 4106 628 3988 
L 628 4550 
Q 988 4650 1302 4700 
Q 1616 4750 1894 4750 
Q 2613 4750 3031 4423 
Q 3450 4097 3450 3541 
Q 3450 3153 3228 2886 
Q 3006 2619 2597 2516 
z
" transform="scale(0.015625)"/>
       </defs>
       <use xlink:href="#DejaVuSans-33"/>
       <use xlink:href="#DejaVuSans-30" transform="translate(63.623047 0)"/>
       <use xlink:href="#DejaVuSans-30" transform="translate(127.246094 0)"/>
      </g>
     </g>
    </g>
    <g id="xtick_8">
     <g id="line2d_15">
      <path d="M 767.524779 364.4 
L 767.524779 51.8 
" clip-path="url(#p2ab4752b11)" style="fill: none; stroke-dasharray: 2.96,1.28; stroke-dashoffset: 0; stroke: #b0b0b0; stroke-opacity: 0.7; stroke-width: 0.8"/>
     </g>
     <g id="line2d_16">
      <g>
       <use xlink:href="#m8a918441b9" x="767.524779" y="364.4" style="stroke: #000000; stroke-width: 0.8"/>
      </g>
     </g>
     <g id="text_8">
      <!-- 350 -->
      <g transform="translate(756.072279 380.518125) scale(0.12 -0.12)">
       <use xlink:href="#DejaVuSans-33"/>
       <use xlink:href="#DejaVuSans-35" transform="translate(63.623047 0)"/>
       <use xlink:href="#DejaVuSans-30" transform="translate(127.246094 0)"/>
      </g>
     </g>
    </g>
    <g id="text_9">
     <!-- Score [ns/op] (lower is better) -->
     <g transform="translate(380.336511 396.131875) scale(0.12 -0.12)">
      <defs>
       <path id="DejaVuSans-53" d="M 3425 4513 
L 3425 3897 
Q 3066 4069 2747 4153 
Q 2428 4238 2131 4238 
Q 1616 4238 1336 4038 
Q 1056 3838 1056 3469 
Q 1056 3159 1242 3001 
Q 1428 2844 1947 2747 
L 2328 2669 
Q 3034 2534 3370 2195 
Q 3706 1856 3706 1288 
Q 3706 609 3251 259 
Q 2797 -91 1919 -91 
Q 1588 -91 1214 -16 
Q 841 59 441 206 
L 441 856 
Q 825 641 1194 531 
Q 1563 422 1919 422 
Q 2459 422 2753 634 
Q 3047 847 3047 1241 
Q 3047 1584 2836 1778 
Q 2625 1972 2144 2069 
L 1759 2144 
Q 1053 2284 737 2584 
Q 422 2884 422 3419 
Q 422 4038 858 4394 
Q 1294 4750 2059 4750 
Q 2388 4750 2728 4690 
Q 3069 4631 3425 4513 
z
" transform="scale(0.015625)"/>
       <path id="DejaVuSans-63" d="M 3122 3366 
L 3122 2828 
Q 2878 2963 2633 3030 
Q 2388 3097 2138 3097 
Q 1578 3097 1268 2742 
Q 959 2388 959 1747 
Q 959 1106 1268 751 
Q 1578 397 2138 397 
Q 2388 397 2633 464 
Q 2878 531 3122 666 
L 3122 134 
Q 2881 22 2623 -34 
Q 2366 -91 2075 -91 
Q 1284 -91 818 406 
Q 353 903 353 1747 
Q 353 2603 823 3093 
Q 1294 3584 2113 3584 
Q 2378 3584 2631 3529 
Q 2884 3475 3122 3366 
z
" transform="scale(0.015625)"/>
       <path id="DejaVuSans-6f" d="M 1959 3097 
Q 1497 3097 1228 2736 
Q 959 2375 959 1747 
Q 959 1119 1226 758 
Q 1494 397 1959 397 
Q 2419 397 2687 759 
Q 2956 1122 2956 1747 
Q 2956 2369 2687 2733 
Q 2419 3097 1959 3097 
z
M 1959 3584 
Q 2709 3584 3137 3096 
Q 3566 2609 3566 1747 
Q 3566 888 3137 398 
Q 2709 -91 1959 -91 
Q 1206 -91 779 398 
Q 353 888 353 1747 
Q 353 2609 779 3096 
Q 1206 3584 1959 3584 
z
" transform="scale(0.015625)"/>
       <path id="DejaVuSans-72" d="M 2631 2963 
Q 2534 3019 2420 3045 
Q 2306 3072 2169 3072 
Q 1681 3072 1420 2755 
Q 1159 2438 1159 1844 
L 1159 0 
L 581 0 
L 581 3500 
L 1159 3500 
L 1159 2956 
Q 1341 3275 1631 3429 
Q 1922 3584 2338 3584 
Q 2397 3584 2469 3576 
Q 2541 3569 2628 3553 
L 2631 2963 
z
" transform="scale(0.015625)"/>
       <path id="DejaVuSans-65" d="M 3597 1894 
L 3597 1613 
L 953 1613 
Q 991 1019 1311 708 
Q 1631 397 2203 397 
Q 2534 397 2845 478 
Q 3156 559 3463 722 
L 3463 178 
Q 3153 47 2828 -22 
Q 2503 -91 2169 -91 
Q 1331 -91 842 396 
Q 353 884 353 1716 
Q 353 2575 817 3079 
Q 1281 3584 2069 3584 
Q 2775 3584 3186 3129 
Q 3597 2675 3597 1894 
z
M 3022 2063 
Q 3016 2534 2758 2815 
Q 2500 3097 2075 3097 
Q 1594 3097 1305 2825 
Q 1016 2553 972 2059 
L 3022 2063 
z
" transform="scale(0.015625)"/>
       <path id="DejaVuSans-20" transform="scale(0.015625)"/>
       <path id="DejaVuSans-5b" d="M 550 4863 
L 1875 4863 
L 1875 4416 
L 1125 4416 
L 1125 -397 
L 1875 -397 
L 1875 -844 
L 550 -844 
L 550 4863 
z
" transform="scale(0.015625)"/>
       <path id="DejaVuSans-6e" d="M 3513 2113 
L 3513 0 
L 2938 0 
L 2938 2094 
Q 2938 2591 2744 2837 
Q 2550 3084 2163 3084 
Q 1697 3084 1428 2787 
Q 1159 2491 1159 1978 
L 1159 0 
L 581 0 
L 581 3500 
L 1159 3500 
L 1159 2956 
Q 1366 3272 1645 3428 
Q 1925 3584 2291 3584 
Q 2894 3584 3203 3211 
Q 3513 2838 3513 2113 
z
" transform="scale(0.015625)"/>
       <path id="DejaVuSans-73" d="M 2834 3397 
L 2834 2853 
Q 2591 2978 2328 3040 
Q 2066 3103 1784 3103 
Q 1356 3103 1142 2972 
Q 928 2841 928 2578 
Q 928 2378 1081 2264 
Q 1234 2150 1697 2047 
L 1894 2003 
Q 2506 1872 2764 1633 
Q 3022 1394 3022 966 
Q 3022 478 2636 193 
Q 2250 -91 1575 -91 
Q 1294 -91 989 -36 
Q 684 19 347 128 
L 347 722 
Q 666 556 975 473 
Q 1284 391 1588 391 
Q 1994 391 2212 530 
Q 2431 669 2431 922 
Q 2431 1156 2273 1281 
Q 2116 1406 1581 1522 
L 1381 1569 
Q 847 1681 609 1914 
Q 372 2147 372 2553 
Q 372 3047 722 3315 
Q 1072 3584 1716 3584 
Q 2034 3584 2315 3537 
Q 2597 3491 2834 3397 
z
" transform="scale(0.015625)"/>
       <path id="DejaVuSans-2f" d="M 1625 4666 
L 2156 4666 
L 531 -594 
L 0 -594 
L 1625 4666 
z
" transform="scale(0.015625)"/>
       <path id="DejaVuSans-70" d="M 1159 525 
L 1159 -1331 
L 581 -1331 
L 581 3500 
L 1159 3500 
L 1159 2969 
Q 1341 3281 1617 3432 
Q 1894 3584 2278 3584 
Q 2916 3584 3314 3078 
Q 3713 2572 3713 1747 
Q 3713 922 3314 415 
Q 2916 -91 2278 -91 
Q 1894 -91 1617 61 
Q 1341 213 1159 525 
z
M 3116 1747 
Q 3116 2381 2855 2742 
Q 2594 3103 2138 3103 
Q 1681 3103 1420 2742 
Q 1159 2381 1159 1747 
Q 1159 1113 1420 752 
Q 1681 391 2138 391 
Q 2594 391 2855 752 
Q 3116 1113 3116 1747 
z
" transform="scale(0.015625)"/>
       <path id="DejaVuSans-5d" d="M 1947 4863 
L 1947 -844 
L 622 -844 
L 622 -397 
L 1369 -397 
L 1369 4416 
L 622 4416 
L 622 4863 
L 1947 4863 
z
" transform="scale(0.015625)"/>
       <path id="DejaVuSans-28" d="M 1984 4856 
Q 1566 4138 1362 3434 
Q 1159 2731 1159 2009 
Q 1159 1288 1364 580 
Q 1569 -128 1984 -844 
L 1484 -844 
Q 1016 -109 783 600 
Q 550 1309 550 2009 
Q 550 2706 781 3412 
Q 1013 4119 1484 4856 
L 1984 4856 
z
" transform="scale(0.015625)"/>
       <path id="DejaVuSans-6c" d="M 603 4863 
L 1178 4863 
L 1178 0 
L 603 0 
L 603 4863 
z
" transform="scale(0.015625)"/>
       <path id="DejaVuSans-77" d="M 269 3500 
L 844 3500 
L 1563 769 
L 2278 3500 
L 2956 3500 
L 3675 769 
L 4391 3500 
L 4966 3500 
L 4050 0 
L 3372 0 
L 2619 2869 
L 1863 0 
L 1184 0 
L 269 3500 
z
" transform="scale(0.015625)"/>
       <path id="DejaVuSans-69" d="M 603 3500 
L 1178 3500 
L 1178 0 
L 603 0 
L 603 3500 
z
M 603 4863 
L 1178 4863 
L 1178 4134 
L 603 4134 
L 603 4863 
z
" transform="scale(0.015625)"/>
       <path id="DejaVuSans-62" d="M 3116 1747 
Q 3116 2381 2855 2742 
Q 2594 3103 2138 3103 
Q 1681 3103 1420 2742 
Q 1159 2381 1159 1747 
Q 1159 1113 1420 752 
Q 1681 391 2138 391 
Q 2594 391 2855 752 
Q 3116 1113 3116 1747 
z
M 1159 2969 
Q 1341 3281 1617 3432 
Q 1894 3584 2278 3584 
Q 2916 3584 3314 3078 
Q 3713 2572 3713 1747 
Q 3713 922 3314 415 
Q 2916 -91 2278 -91 
Q 1894 -91 1617 61 
Q 1341 213 1159 525 
L 1159 0 
L 581 0 
L 581 4863 
L 1159 4863 
L 1159 2969 
z
" transform="scale(0.015625)"/>
       <path id="DejaVuSans-74" d="M 1172 4494 
L 1172 3500 
L 2356 3500 
L 2356 3053 
L 1172 3053 
L 1172 1153 
Q 1172 725 1289 603 
Q 1406 481 1766 481 
L 2356 481 
L 2356 0 
L 1766 0 
Q 1100 0 847 248 
Q 594 497 594 1153 
L 594 3053 
L 172 3053 
L 172 3500 
L 594 3500 
L 594 4494 
L 1172 4494 
z
" transform="scale(0.015625)"/>
       <path id="DejaVuSans-29" d="M 513 4856 
L 1013 4856 
Q 1481 4119 1714 3412 
Q 1947 2706 1947 2009 
Q 1947 1309 1714 600 
Q 1481 -109 1013 -844 
L 513 -844 
Q 928 -128 1133 580 
Q 1338 1288 1338 2009 
Q 1338 2731 1133 3434 
Q 928 4138 513 4856 
z
" transform="scale(0.015625)"/>
      </defs>
      <use xlink:href="#DejaVuSans-53"/>
      <use xlink:href="#DejaVuSans-63" transform="translate(63.476562 0)"/>
      <use xlink:href="#DejaVuSans-6f" transform="translate(118.457031 0)"/>
      <use xlink:href="#DejaVuSans-72" transform="translate(179.638672 0)"/>
      <use xlink:href="#DejaVuSans-65" transform="translate(218.501953 0)"/>
      <use xlink:href="#DejaVuSans-20" transform="translate(280.025391 0)"/>
      <use xlink:href="#DejaVuSans-5b" transform="translate(311.8125 0)"/>
      <use xlink:href="#DejaVuSans-6e" transform="translate(350.826172 0)"/>
      <use xlink:href="#DejaVuSans-73" transform="translate(414.205078 0)"/>
      <use xlink:href="#DejaVuSans-2f" transform="translate(466.304688 0)"/>
      <use xlink:href="#DejaVuSans-6f" transform="translate(499.996094 0)"/>
      <use xlink:href="#DejaVuSans-70" transform="translate(561.177734 0)"/>
      <use xlink:href="#DejaVuSans-5d" transform="translate(624.654297 0)"/>
      <use xlink:href="#DejaVuSans-20" transform="translate(663.667969 0)"/>
      <use xlink:href="#DejaVuSans-28" transform="translate(695.455078 0)"/>
      <use xlink:href="#DejaVuSans-6c" transform="translate(734.46875 0)"/>
      <use xlink:href="#DejaVuSans-6f" transform="translate(762.251953 0)"/>
      <use xlink:href="#DejaVuSans-77" transform="translate(823.433594 0)"/>
      <use xlink:href="#DejaVuSans-65" transform="translate(905.220703 0)"/>
      <use xlink:href="#DejaVuSans-72" transform="translate(966.744141 0)"/>
      <use xlink:href="#DejaVuSans-20" transform="translate(1007.857422 0)"/>
      <use xlink:href="#DejaVuSans-69" transform="translate(1039.644531 0)"/>
      <use xlink:href="#DejaVuSans-73" transform="translate(1067.427734 0)"/>
      <use xlink:href="#DejaVuSans-20" transform="translate(1119.527344 0)"/>
      <use xlink:href="#DejaVuSans-62" transform="translate(1151.314453 0)"/>
      <use xlink:href="#DejaVuSans-65" transform="translate(1214.791016 0)"/>
      <use xlink:href="#DejaVuSans-74" transform="translate(1276.314453 0)"/>
      <use xlink:href="#DejaVuSans-74" transform="translate(1315.523438 0)"/>
      <use xlink:href="#DejaVuSans-65" transform="translate(1354.732422 0)"/>
      <use xlink:href="#DejaVuSans-72" transform="translate(1416.255859 0)"/>
      <use xlink:href="#DejaVuSans-29" transform="translate(1457.369141 0)"/>
     </g>
    </g>
   </g>
   <g id="matplotlib.axis_2">
    <g id="ytick_1">
     <g id="line2d_17">
      <defs>
       <path id="mf4492cf56a" d="M 0 0 
L -3.5 0 
" style="stroke: #000000; stroke-width: 0.8"/>
      </defs>
      <g>
       <use xlink:href="#mf4492cf56a" x="111.239896" y="294.215702" style="stroke: #000000; stroke-width: 0.8"/>
      </g>
     </g>
     <g id="text_10">
      <!-- ApfloatAddition -->
      <g transform="translate(53.945711 344.602702) rotate(-45) scale(0.09 -0.09)">
       <defs>
        <path id="DejaVuSans-41" d="M 2188 4044 
L 1331 1722 
L 3047 1722 
L 2188 4044 
z
M 1831 4666 
L 2547 4666 
L 4325 0 
L 3669 0 
L 3244 1197 
L 1141 1197 
L 716 0 
L 50 0 
L 1831 4666 
z
" transform="scale(0.015625)"/>
        <path id="DejaVuSans-66" d="M 2375 4863 
L 2375 4384 
L 1825 4384 
Q 1516 4384 1395 4259 
Q 1275 4134 1275 3809 
L 1275 3500 
L 2222 3500 
L 2222 3053 
L 1275 3053 
L 1275 0 
L 697 0 
L 697 3053 
L 147 3053 
L 147 3500 
L 697 3500 
L 697 3744 
Q 697 4328 969 4595 
Q 1241 4863 1831 4863 
L 2375 4863 
z
" transform="scale(0.015625)"/>
        <path id="DejaVuSans-61" d="M 2194 1759 
Q 1497 1759 1228 1600 
Q 959 1441 959 1056 
Q 959 750 1161 570 
Q 1363 391 1709 391 
Q 2188 391 2477 730 
Q 2766 1069 2766 1631 
L 2766 1759 
L 2194 1759 
z
M 3341 1997 
L 3341 0 
L 2766 0 
L 2766 531 
Q 2569 213 2275 61 
Q 1981 -91 1556 -91 
Q 1019 -91 701 211 
Q 384 513 384 1019 
Q 384 1609 779 1909 
Q 1175 2209 1959 2209 
L 2766 2209 
L 2766 2266 
Q 2766 2663 2505 2880 
Q 2244 3097 1772 3097 
Q 1472 3097 1187 3025 
Q 903 2953 641 2809 
L 641 3341 
Q 956 3463 1253 3523 
Q 1550 3584 1831 3584 
Q 2591 3584 2966 3190 
Q 3341 2797 3341 1997 
z
" transform="scale(0.015625)"/>
        <path id="DejaVuSans-64" d="M 2906 2969 
L 2906 4863 
L 3481 4863 
L 3481 0 
L 2906 0 
L 2906 525 
Q 2725 213 2448 61 
Q 2172 -91 1784 -91 
Q 1150 -91 751 415 
Q 353 922 353 1747 
Q 353 2572 751 3078 
Q 1150 3584 1784 3584 
Q 2172 3584 2448 3432 
Q 2725 3281 2906 2969 
z
M 947 1747 
Q 947 1113 1208 752 
Q 1469 391 1925 391 
Q 2381 391 2643 752 
Q 2906 1113 2906 1747 
Q 2906 2381 2643 2742 
Q 2381 3103 1925 3103 
Q 1469 3103 1208 2742 
Q 947 2381 947 1747 
z
" transform="scale(0.015625)"/>
       </defs>
       <use xlink:href="#DejaVuSans-41"/>
       <use xlink:href="#DejaVuSans-70" transform="translate(68.408203 0)"/>
       <use xlink:href="#DejaVuSans-66" transform="translate(131.884766 0)"/>
       <use xlink:href="#DejaVuSans-6c" transform="translate(167.089844 0)"/>
       <use xlink:href="#DejaVuSans-6f" transform="translate(194.873047 0)"/>
       <use xlink:href="#DejaVuSans-61" transform="translate(256.054688 0)"/>
       <use xlink:href="#DejaVuSans-74" transform="translate(317.333984 0)"/>
       <use xlink:href="#DejaVuSans-41" transform="translate(356.542969 0)"/>
       <use xlink:href="#DejaVuSans-64" transform="translate(423.201172 0)"/>
       <use xlink:href="#DejaVuSans-64" transform="translate(486.677734 0)"/>
       <use xlink:href="#DejaVuSans-69" transform="translate(550.154297 0)"/>
       <use xlink:href="#DejaVuSans-74" transform="translate(577.9375 0)"/>
       <use xlink:href="#DejaVuSans-69" transform="translate(617.146484 0)"/>
       <use xlink:href="#DejaVuSans-6f" transform="translate(644.929688 0)"/>
       <use xlink:href="#DejaVuSans-6e" transform="translate(706.111328 0)"/>
      </g>
     </g>
    </g>
    <g id="ytick_2">
     <g id="line2d_18">
      <g>
       <use xlink:href="#mf4492cf56a" x="111.239896" y="121.984298" style="stroke: #000000; stroke-width: 0.8"/>
      </g>
     </g>
     <g id="text_11">
      <!-- BigDecimalAddition -->
      <g transform="translate(40.511787 185.805221) rotate(-45) scale(0.09 -0.09)">
       <defs>
        <path id="DejaVuSans-42" d="M 1259 2228 
L 1259 519 
L 2272 519 
Q 2781 519 3026 730 
Q 3272 941 3272 1375 
Q 3272 1813 3026 2020 
Q 2781 2228 2272 2228 
L 1259 2228 
z
M 1259 4147 
L 1259 2741 
L 2194 2741 
Q 2656 2741 2882 2914 
Q 3109 3088 3109 3444 
Q 3109 3797 2882 3972 
Q 2656 4147 2194 4147 
L 1259 4147 
z
M 628 4666 
L 2241 4666 
Q 2963 4666 3353 4366 
Q 3744 4066 3744 3513 
Q 3744 3084 3544 2831 
Q 3344 2578 2956 2516 
Q 3422 2416 3680 2098 
Q 3938 1781 3938 1306 
Q 3938 681 3513 340 
Q 3088 0 2303 0 
L 628 0 
L 628 4666 
z
" transform="scale(0.015625)"/>
        <path id="DejaVuSans-67" d="M 2906 1791 
Q 2906 2416 2648 2759 
Q 2391 3103 1925 3103 
Q 1463 3103 1205 2759 
Q 947 2416 947 1791 
Q 947 1169 1205 825 
Q 1463 481 1925 481 
Q 2391 481 2648 825 
Q 2906 1169 2906 1791 
z
M 3481 434 
Q 3481 -459 3084 -895 
Q 2688 -1331 1869 -1331 
Q 1566 -1331 1297 -1286 
Q 1028 -1241 775 -1147 
L 775 -588 
Q 1028 -725 1275 -790 
Q 1522 -856 1778 -856 
Q 2344 -856 2625 -561 
Q 2906 -266 2906 331 
L 2906 616 
Q 2728 306 2450 153 
Q 2172 0 1784 0 
Q 1141 0 747 490 
Q 353 981 353 1791 
Q 353 2603 747 3093 
Q 1141 3584 1784 3584 
Q 2172 3584 2450 3431 
Q 2728 3278 2906 2969 
L 2906 3500 
L 3481 3500 
L 3481 434 
z
" transform="scale(0.015625)"/>
        <path id="DejaVuSans-44" d="M 1259 4147 
L 1259 519 
L 2022 519 
Q 2988 519 3436 956 
Q 3884 1394 3884 2338 
Q 3884 3275 3436 3711 
Q 2988 4147 2022 4147 
L 1259 4147 
z
M 628 4666 
L 1925 4666 
Q 3281 4666 3915 4102 
Q 4550 3538 4550 2338 
Q 4550 1131 3912 565 
Q 3275 0 1925 0 
L 628 0 
L 628 4666 
z
" transform="scale(0.015625)"/>
        <path id="DejaVuSans-6d" d="M 3328 2828 
Q 3544 3216 3844 3400 
Q 4144 3584 4550 3584 
Q 5097 3584 5394 3201 
Q 5691 2819 5691 2113 
L 5691 0 
L 5113 0 
L 5113 2094 
Q 5113 2597 4934 2840 
Q 4756 3084 4391 3084 
Q 3944 3084 3684 2787 
Q 3425 2491 3425 1978 
L 3425 0 
L 2847 0 
L 2847 2094 
Q 2847 2600 2669 2842 
Q 2491 3084 2119 3084 
Q 1678 3084 1418 2786 
Q 1159 2488 1159 1978 
L 1159 0 
L 581 0 
L 581 3500 
L 1159 3500 
L 1159 2956 
Q 1356 3278 1631 3431 
Q 1906 3584 2284 3584 
Q 2666 3584 2933 3390 
Q 3200 3197 3328 2828 
z
" transform="scale(0.015625)"/>
       </defs>
       <use xlink:href="#DejaVuSans-42"/>
       <use xlink:href="#DejaVuSans-69" transform="translate(68.603516 0)"/>
       <use xlink:href="#DejaVuSans-67" transform="translate(96.386719 0)"/>
       <use xlink:href="#DejaVuSans-44" transform="translate(159.863281 0)"/>
       <use xlink:href="#DejaVuSans-65" transform="translate(236.865234 0)"/>
       <use xlink:href="#DejaVuSans-63" transform="translate(298.388672 0)"/>
       <use xlink:href="#DejaVuSans-69" transform="translate(353.369141 0)"/>
       <use xlink:href="#DejaVuSans-6d" transform="translate(381.152344 0)"/>
       <use xlink:href="#DejaVuSans-61" transform="translate(478.564453 0)"/>
       <use xlink:href="#DejaVuSans-6c" transform="translate(539.84375 0)"/>
       <use xlink:href="#DejaVuSans-41" transform="translate(567.626953 0)"/>
       <use xlink:href="#DejaVuSans-64" transform="translate(634.285156 0)"/>
       <use xlink:href="#DejaVuSans-64" transform="translate(697.761719 0)"/>
       <use xlink:href="#DejaVuSans-69" transform="translate(761.238281 0)"/>
       <use xlink:href="#DejaVuSans-74" transform="translate(789.021484 0)"/>
       <use xlink:href="#DejaVuSans-69" transform="translate(828.230469 0)"/>
       <use xlink:href="#DejaVuSans-6f" transform="translate(856.013672 0)"/>
       <use xlink:href="#DejaVuSans-6e" transform="translate(917.195312 0)"/>
      </g>
     </g>
    </g>
   </g>
   <g id="LineCollection_1">
    <path d="M 550.471948 345.885124 
L 794.820947 345.885124 
" clip-path="url(#p2ab4752b11)" style="fill: none; stroke: #ff7777; stroke-width: 0.5"/>
   </g>
   <g id="line2d_19">
    <defs>
     <path id="mf0247cae73" d="M 0 2 
L 0 -2 
" style="stroke: #ff7777"/>
    </defs>
    <g clip-path="url(#p2ab4752b11)">
     <use xlink:href="#mf0247cae73" x="550.471948" y="345.885124" style="fill: #ff7777; stroke: #ff7777"/>
    </g>
   </g>
   <g id="line2d_20">
    <g clip-path="url(#p2ab4752b11)">
     <use xlink:href="#mf0247cae73" x="794.820947" y="345.885124" style="fill: #ff7777; stroke: #ff7777"/>
    </g>
   </g>
   <g id="LineCollection_2">
    <path d="M 623.289865 311.438843 
L 658.915475 311.438843 
" clip-path="url(#p2ab4752b11)" style="fill: none; stroke: #ff7777; stroke-width: 0.5"/>
   </g>
   <g id="line2d_21">
    <g clip-path="url(#p2ab4752b11)">
     <use xlink:href="#mf0247cae73" x="623.289865" y="311.438843" style="fill: #ff7777; stroke: #ff7777"/>
    </g>
   </g>
   <g id="line2d_22">
    <g clip-path="url(#p2ab4752b11)">
     <use xlink:href="#mf0247cae73" x="658.915475" y="311.438843" style="fill: #ff7777; stroke: #ff7777"/>
    </g>
   </g>
   <g id="LineCollection_3">
    <path d="M 625.68648 276.992562 
L 667.320577 276.992562 
" clip-path="url(#p2ab4752b11)" style="fill: none; stroke: #ff7777; stroke-width: 0.5"/>
   </g>
   <g id="line2d_23">
    <g clip-path="url(#p2ab4752b11)">
     <use xlink:href="#mf0247cae73" x="625.68648" y="276.992562" style="fill: #ff7777; stroke: #ff7777"/>
    </g>
   </g>
   <g id="line2d_24">
    <g clip-path="url(#p2ab4752b11)">
     <use xlink:href="#mf0247cae73" x="667.320577" y="276.992562" style="fill: #ff7777; stroke: #ff7777"/>
    </g>
   </g>
   <g id="LineCollection_4">
    <path d="M 643.153367 242.546281 
L 655.716946 242.546281 
" clip-path="url(#p2ab4752b11)" style="fill: none; stroke: #ff7777; stroke-width: 0.5"/>
   </g>
   <g id="line2d_25">
    <g clip-path="url(#p2ab4752b11)">
     <use xlink:href="#mf0247cae73" x="643.153367" y="242.546281" style="fill: #ff7777; stroke: #ff7777"/>
    </g>
   </g>
   <g id="line2d_26">
    <g clip-path="url(#p2ab4752b11)">
     <use xlink:href="#mf0247cae73" x="655.716946" y="242.546281" style="fill: #ff7777; stroke: #ff7777"/>
    </g>
   </g>
   <g id="LineCollection_5">
    <path d="M 153.256635 173.653719 
L 168.231761 173.653719 
" clip-path="url(#p2ab4752b11)" style="fill: none; stroke: #ff7777; stroke-width: 0.5"/>
   </g>
   <g id="line2d_27">
    <g clip-path="url(#p2ab4752b11)">
     <use xlink:href="#mf0247cae73" x="153.256635" y="173.653719" style="fill: #ff7777; stroke: #ff7777"/>
    </g>
   </g>
   <g id="line2d_28">
    <g clip-path="url(#p2ab4752b11)">
     <use xlink:href="#mf0247cae73" x="168.231761" y="173.653719" style="fill: #ff7777; stroke: #ff7777"/>
    </g>
   </g>
   <g id="LineCollection_6">
    <path d="M 167.320653 139.207438 
L 172.416591 139.207438 
" clip-path="url(#p2ab4752b11)" style="fill: none; stroke: #ff7777; stroke-width: 0.5"/>
   </g>
   <g id="line2d_29">
    <g clip-path="url(#p2ab4752b11)">
     <use xlink:href="#mf0247cae73" x="167.320653" y="139.207438" style="fill: #ff7777; stroke: #ff7777"/>
    </g>
   </g>
   <g id="line2d_30">
    <g clip-path="url(#p2ab4752b11)">
     <use xlink:href="#mf0247cae73" x="172.416591" y="139.207438" style="fill: #ff7777; stroke: #ff7777"/>
    </g>
   </g>
   <g id="LineCollection_7">
    <path d="M 172.599749 104.761157 
L 177.532354 104.761157 
" clip-path="url(#p2ab4752b11)" style="fill: none; stroke: #ff7777; stroke-width: 0.5"/>
   </g>
   <g id="line2d_31">
    <g clip-path="url(#p2ab4752b11)">
     <use xlink:href="#mf0247cae73" x="172.599749" y="104.761157" style="fill: #ff7777; stroke: #ff7777"/>
    </g>
   </g>
   <g id="line2d_32">
    <g clip-path="url(#p2ab4752b11)">
     <use xlink:href="#mf0247cae73" x="177.532354" y="104.761157" style="fill: #ff7777; stroke: #ff7777"/>
    </g>
   </g>
   <g id="LineCollection_8">
    <path d="M 172.474669 70.314876 
L 178.323344 70.314876 
" clip-path="url(#p2ab4752b11)" style="fill: none; stroke: #ff7777; stroke-width: 0.5"/>
   </g>
   <g id="line2d_33">
    <g clip-path="url(#p2ab4752b11)">
     <use xlink:href="#mf0247cae73" x="172.474669" y="70.314876" style="fill: #ff7777; stroke: #ff7777"/>
    </g>
   </g>
   <g id="line2d_34">
    <g clip-path="url(#p2ab4752b11)">
     <use xlink:href="#mf0247cae73" x="178.323344" y="70.314876" style="fill: #ff7777; stroke: #ff7777"/>
    </g>
   </g>
   <g id="patch_11">
    <path d="M 111.239896 364.4 
L 111.239896 51.8 
" style="fill: none; stroke: #000000; stroke-width: 0.8; stroke-linejoin: miter; stroke-linecap: square"/>
   </g>
   <g id="patch_12">
    <path d="M 829 364.4 
L 829 51.8 
" style="fill: none; stroke: #000000; stroke-width: 0.8; stroke-linejoin: miter; stroke-linecap: square"/>
   </g>
   <g id="patch_13">
    <path d="M 111.239896 364.4 
L 829 364.4 
" style="fill: none; stroke: #000000; stroke-width: 0.8; stroke-linejoin: miter; stroke-linecap: square"/>
   </g>
   <g id="patch_14">
    <path d="M 111.239896 51.8 
L 829 51.8 
" style="fill: none; stroke: #000000; stroke-width: 0.8; stroke-linejoin: miter; stroke-linecap: square"/>
   </g>
   <g id="text_12">
    <!-- 25 -->
    <g transform="translate(672.665199 348.368561) scale(0.09 -0.09)">
     <use xlink:href="#DejaVuSans-32"/>
     <use xlink:href="#DejaVuSans-35" transform="translate(63.623047 0)"/>
    </g>
   </g>
   <g id="text_13">
    <!-- 50 -->
    <g transform="translate(641.121421 313.92228) scale(0.09 -0.09)">
     <use xlink:href="#DejaVuSans-35"/>
     <use xlink:href="#DejaVuSans-30" transform="translate(63.623047 0)"/>
    </g>
   </g>
   <g id="text_14">
    <!-- 500 -->
    <g transform="translate(646.522279 279.475999) scale(0.09 -0.09)">
     <use xlink:href="#DejaVuSans-35"/>
     <use xlink:href="#DejaVuSans-30" transform="translate(63.623047 0)"/>
     <use xlink:href="#DejaVuSans-30" transform="translate(127.246094 0)"/>
    </g>
   </g>
   <g id="text_15">
    <!-- 1000 -->
    <g transform="translate(649.453907 245.029718) scale(0.09 -0.09)">
     <use xlink:href="#DejaVuSans-31"/>
     <use xlink:href="#DejaVuSans-30" transform="translate(63.623047 0)"/>
     <use xlink:href="#DejaVuSans-30" transform="translate(127.246094 0)"/>
     <use xlink:href="#DejaVuSans-30" transform="translate(190.869141 0)"/>
    </g>
   </g>
   <g id="text_16">
    <!-- 25 -->
    <g transform="translate(160.762949 176.137157) scale(0.09 -0.09)">
     <use xlink:href="#DejaVuSans-32"/>
     <use xlink:href="#DejaVuSans-35" transform="translate(63.623047 0)"/>
    </g>
   </g>
   <g id="text_17">
    <!-- 50 -->
    <g transform="translate(169.887373 141.690876) scale(0.09 -0.09)">
     <use xlink:href="#DejaVuSans-35"/>
     <use xlink:href="#DejaVuSans-30" transform="translate(63.623047 0)"/>
    </g>
   </g>
   <g id="text_18">
    <!-- 500 -->
    <g transform="translate(175.084802 107.244595) scale(0.09 -0.09)">
     <use xlink:href="#DejaVuSans-35"/>
     <use xlink:href="#DejaVuSans-30" transform="translate(63.623047 0)"/>
     <use xlink:href="#DejaVuSans-30" transform="translate(127.246094 0)"/>
    </g>
   </g>
   <g id="text_19">
    <!-- 1000 -->
    <g transform="translate(175.417757 72.798314) scale(0.09 -0.09)">
     <use xlink:href="#DejaVuSans-31"/>
     <use xlink:href="#DejaVuSans-30" transform="translate(63.623047 0)"/>
     <use xlink:href="#DejaVuSans-30" transform="translate(127.246094 0)"/>
     <use xlink:href="#DejaVuSans-30" transform="translate(190.869141 0)"/>
    </g>
   </g>
   <g id="text_20">
    <!-- Apfloat v BigDecimal benchmark: Addition -->
    <g transform="translate(321.608386 45.8) scale(0.14 -0.14)">
     <defs>
      <path id="DejaVuSans-76" d="M 191 3500 
L 800 3500 
L 1894 563 
L 2988 3500 
L 3597 3500 
L 2284 0 
L 1503 0 
L 191 3500 
z
" transform="scale(0.015625)"/>
      <path id="DejaVuSans-68" d="M 3513 2113 
L 3513 0 
L 2938 0 
L 2938 2094 
Q 2938 2591 2744 2837 
Q 2550 3084 2163 3084 
Q 1697 3084 1428 2787 
Q 1159 2491 1159 1978 
L 1159 0 
L 581 0 
L 581 4863 
L 1159 4863 
L 1159 2956 
Q 1366 3272 1645 3428 
Q 1925 3584 2291 3584 
Q 2894 3584 3203 3211 
Q 3513 2838 3513 2113 
z
" transform="scale(0.015625)"/>
      <path id="DejaVuSans-6b" d="M 581 4863 
L 1159 4863 
L 1159 1991 
L 2875 3500 
L 3609 3500 
L 1753 1863 
L 3688 0 
L 2938 0 
L 1159 1709 
L 1159 0 
L 581 0 
L 581 4863 
z
" transform="scale(0.015625)"/>
      <path id="DejaVuSans-3a" d="M 750 794 
L 1409 794 
L 1409 0 
L 750 0 
L 750 794 
z
M 750 3309 
L 1409 3309 
L 1409 2516 
L 750 2516 
L 750 3309 
z
" transform="scale(0.015625)"/>
     </defs>
     <use xlink:href="#DejaVuSans-41"/>
     <use xlink:href="#DejaVuSans-70" transform="translate(68.408203 0)"/>
     <use xlink:href="#DejaVuSans-66" transform="translate(131.884766 0)"/>
     <use xlink:href="#DejaVuSans-6c" transform="translate(167.089844 0)"/>
     <use xlink:href="#DejaVuSans-6f" transform="translate(194.873047 0)"/>
     <use xlink:href="#DejaVuSans-61" transform="translate(256.054688 0)"/>
     <use xlink:href="#DejaVuSans-74" transform="translate(317.333984 0)"/>
     <use xlink:href="#DejaVuSans-20" transform="translate(356.542969 0)"/>
     <use xlink:href="#DejaVuSans-76" transform="translate(388.330078 0)"/>
     <use xlink:href="#DejaVuSans-20" transform="translate(447.509766 0)"/>
     <use xlink:href="#DejaVuSans-42" transform="translate(479.296875 0)"/>
     <use xlink:href="#DejaVuSans-69" transform="translate(547.900391 0)"/>
     <use xlink:href="#DejaVuSans-67" transform="translate(575.683594 0)"/>
     <use xlink:href="#DejaVuSans-44" transform="translate(639.160156 0)"/>
     <use xlink:href="#DejaVuSans-65" transform="translate(716.162109 0)"/>
     <use xlink:href="#DejaVuSans-63" transform="translate(777.685547 0)"/>
     <use xlink:href="#DejaVuSans-69" transform="translate(832.666016 0)"/>
     <use xlink:href="#DejaVuSans-6d" transform="translate(860.449219 0)"/>
     <use xlink:href="#DejaVuSans-61" transform="translate(957.861328 0)"/>
     <use xlink:href="#DejaVuSans-6c" transform="translate(1019.140625 0)"/>
     <use xlink:href="#DejaVuSans-20" transform="translate(1046.923828 0)"/>
     <use xlink:href="#DejaVuSans-62" transform="translate(1078.710938 0)"/>
     <use xlink:href="#DejaVuSans-65" transform="translate(1142.1875 0)"/>
     <use xlink:href="#DejaVuSans-6e" transform="translate(1203.710938 0)"/>
     <use xlink:href="#DejaVuSans-63" transform="translate(1267.089844 0)"/>
     <use xlink:href="#DejaVuSans-68" transform="translate(1322.070312 0)"/>
     <use xlink:href="#DejaVuSans-6d" transform="translate(1385.449219 0)"/>
     <use xlink:href="#DejaVuSans-61" transform="translate(1482.861328 0)"/>
     <use xlink:href="#DejaVuSans-72" transform="translate(1544.140625 0)"/>
     <use xlink:href="#DejaVuSans-6b" transform="translate(1585.253906 0)"/>
     <use xlink:href="#DejaVuSans-3a" transform="translate(1643.164062 0)"/>
     <use xlink:href="#DejaVuSans-20" transform="translate(1676.855469 0)"/>
     <use xlink:href="#DejaVuSans-41" transform="translate(1708.642578 0)"/>
     <use xlink:href="#DejaVuSans-64" transform="translate(1775.300781 0)"/>
     <use xlink:href="#DejaVuSans-64" transform="translate(1838.777344 0)"/>
     <use xlink:href="#DejaVuSans-69" transform="translate(1902.253906 0)"/>
     <use xlink:href="#DejaVuSans-74" transform="translate(1930.037109 0)"/>
     <use xlink:href="#DejaVuSans-69" transform="translate(1969.246094 0)"/>
     <use xlink:href="#DejaVuSans-6f" transform="translate(1997.029297 0)"/>
     <use xlink:href="#DejaVuSans-6e" transform="translate(2058.210938 0)"/>
    </g>
   </g>
   <g id="legend_1">
    <g id="patch_15">
     <path d="M 764.55 133.190625 
L 822 133.190625 
Q 824 133.190625 824 131.190625 
L 824 58.8 
Q 824 56.8 822 56.8 
L 764.55 56.8 
Q 762.55 56.8 762.55 58.8 
L 762.55 131.190625 
Q 762.55 133.190625 764.55 133.190625 
z
" style="fill: #ffffff; opacity: 0.8; stroke: #cccccc; stroke-linejoin: miter"/>
    </g>
    <g id="text_21">
     <!-- Precisions -->
     <g transform="translate(768.363281 68.398437) scale(0.1 -0.1)">
      <defs>
       <path id="DejaVuSans-50" d="M 1259 4147 
L 1259 2394 
L 2053 2394 
Q 2494 2394 2734 2622 
Q 2975 2850 2975 3272 
Q 2975 3691 2734 3919 
Q 2494 4147 2053 4147 
L 1259 4147 
z
M 628 4666 
L 2053 4666 
Q 2838 4666 3239 4311 
Q 3641 3956 3641 3272 
Q 3641 2581 3239 2228 
Q 2838 1875 2053 1875 
L 1259 1875 
L 1259 0 
L 628 0 
L 628 4666 
z
" transform="scale(0.015625)"/>
      </defs>
      <use xlink:href="#DejaVuSans-50"/>
      <use xlink:href="#DejaVuSans-72" transform="translate(58.552734 0)"/>
      <use xlink:href="#DejaVuSans-65" transform="translate(97.416016 0)"/>
      <use xlink:href="#DejaVuSans-63" transform="translate(158.939453 0)"/>
      <use xlink:href="#DejaVuSans-69" transform="translate(213.919922 0)"/>
      <use xlink:href="#DejaVuSans-73" transform="translate(241.703125 0)"/>
      <use xlink:href="#DejaVuSans-69" transform="translate(293.802734 0)"/>
      <use xlink:href="#DejaVuSans-6f" transform="translate(321.585938 0)"/>
      <use xlink:href="#DejaVuSans-6e" transform="translate(382.767578 0)"/>
      <use xlink:href="#DejaVuSans-73" transform="translate(446.146484 0)"/>
     </g>
    </g>
    <g id="patch_16">
     <path d="M 766.55 83.076562 
L 786.55 83.076562 
L 786.55 76.076562 
L 766.55 76.076562 
z
" style="fill: #1f77b4; stroke: #1f77b4; stroke-linejoin: miter"/>
    </g>
    <g id="text_22">
     <!-- 25 -->
     <g transform="translate(794.55 83.076562) scale(0.1 -0.1)">
      <use xlink:href="#DejaVuSans-32"/>
      <use xlink:href="#DejaVuSans-35" transform="translate(63.623047 0)"/>
     </g>
    </g>
    <g id="patch_17">
     <path d="M 766.55 97.754687 
L 786.55 97.754687 
L 786.55 90.754687 
L 766.55 90.754687 
z
" style="fill: #ff7f0e; stroke: #ff7f0e; stroke-linejoin: miter"/>
    </g>
    <g id="text_23">
     <!-- 50 -->
     <g transform="translate(794.55 97.754687) scale(0.1 -0.1)">
      <use xlink:href="#DejaVuSans-35"/>
      <use xlink:href="#DejaVuSans-30" transform="translate(63.623047 0)"/>
     </g>
    </g>
    <g id="patch_18">
     <path d="M 766.55 112.432812 
L 786.55 112.432812 
L 786.55 105.432812 
L 766.55 105.432812 
z
" style="fill: #2ca02c; stroke: #2ca02c; stroke-linejoin: miter"/>
    </g>
    <g id="text_24">
     <!-- 500 -->
     <g transform="translate(794.55 112.432812) scale(0.1 -0.1)">
      <use xlink:href="#DejaVuSans-35"/>
      <use xlink:href="#DejaVuSans-30" transform="translate(63.623047 0)"/>
      <use xlink:href="#DejaVuSans-30" transform="translate(127.246094 0)"/>
     </g>
    </g>
    <g id="patch_19">
     <path d="M 766.55 127.110937 
L 786.55 127.110937 
L 786.55 120.110937 
L 766.55 120.110937 
z
" style="fill: #d62728; stroke: #d62728; stroke-linejoin: miter"/>
    </g>
    <g id="text_25">
     <!-- 1000 -->
     <g transform="translate(794.55 127.110937) scale(0.1 -0.1)">
      <use xlink:href="#DejaVuSans-31"/>
      <use xlink:href="#DejaVuSans-30" transform="translate(63.623047 0)"/>
      <use xlink:href="#DejaVuSans-30" transform="translate(127.246094 0)"/>
      <use xlink:href="#DejaVuSans-30" transform="translate(190.869141 0)"/>
     </g>
    </g>
   </g>
  </g>
 </g>
 <defs>
  <clipPath id="p2ab4752b11">
   <rect x="111.239896" y="51.8" width="717.760104" height="312.6"/>
  </clipPath>
 </defs>
</svg>
